<?xml version="1.0" encoding="UTF-8"?>
<!DOCTYPE svg PUBLIC "-//W3C//DTD SVG 1.1//EN" "http://www.w3.org/Graphics/SVG/1.1/DTD/svg11.dtd">
<svg version="1.2" xmlns="http://www.w3.org/2000/svg" xmlns:xlink="http://www.w3.org/1999/xlink" x="0" y="0" width="629" height="322" viewBox="0 0 629 322">
<style type="text/css"><![CDATA[
text { font:12px Dialog; }
]]></style>
<rect x="-1260" y="-1126" width="3212" height="2584" style="fill:rgb(221,217,195);stroke:none" />
<clipPath id="clip1"><path d="M12,82 L160,82 L160,308 L12,308 L12,82 Z" /></clipPath>
<path d="M22,84 C17.5817261,84 14,87.5817184 14,92 L14,297 C14,301.4182739 17.5817261,305 22,305 L149,305 C153.4182739,305 157,301.4182739 157,297 L157,92 C157,87.5817184 153.4182739,84 149,84 Z" style="fill:rgb(37,50,73);opacity:0.2;stroke:none" clip-path="url(#clip1)" />
<clipPath id="clip2"><path d="M12,82 L160,82 L160,308 L12,308 L12,82 Z" /></clipPath>
<path d="M22,84 C17.5817261,84 14,87.5817184 14,92 L14,297 C14,301.4182739 17.5817261,305 22,305 L149,305 C153.4182739,305 157,301.4182739 157,297 L157,92 C157,87.5817184 153.4182739,84 149,84 Z" style="fill:none;stroke:rgb(37,50,73);stroke-width:2;stroke-dasharray:12,6;stroke-dashoffset:0" clip-path="url(#clip2)" />
<clipPath id="clip3"><path d="M13,15 L619,15 L619,307 L13,307 Z M151,117 L151,194 L420,194 L420,117 Z" /></clipPath>
<path d="M342.3333435,117 L342.3333435,61 L425,61" style="fill:none;stroke:rgb(37,50,73)" clip-path="url(#clip3)" />
<clipPath id="clip4"><path d="M13,15 L619,15 L619,307 L13,307 Z M151,117 L151,194 L420,194 L420,117 Z" /></clipPath>
<path d="M420,144.0899811 L420,139 L480,139" style="fill:none;stroke:rgb(37,50,73)" clip-path="url(#clip4)" />
<clipPath id="clip5"><path d="M13,15 L619,15 L619,307 L13,307 Z M151,117 L151,194 L420,194 L420,117 Z" /></clipPath>
<path d="M407.2601624,194 L407.2601624,217 L480,217" style="fill:none;stroke:rgb(37,50,73)" clip-path="url(#clip5)" />
<clipPath id="clip6"><path d="M13,15 L619,15 L619,307 L13,307 Z M151,117 L151,194 L420,194 L420,117 Z" /></clipPath>
<path d="M324,194 L324,295 L425,295" style="fill:none;stroke:rgb(37,50,73)" clip-path="url(#clip6)" />
<clipPath id="clip7"><path d="M13,15 L619,15 L619,307 L13,307 Z M151,117 L151,194 L420,194 L420,117 Z" /></clipPath>
<path d="M247,194 L247,295 L146,295" style="fill:none;stroke:rgb(37,50,73)" clip-path="url(#clip7)" />
<clipPath id="clip8"><path d="M13,15 L619,15 L619,307 L13,307 Z M151,117 L151,194 L420,194 L420,117 Z" /></clipPath>
<path d="M163.7398376,194 L163.7398376,217 L91,217" style="fill:none;stroke:rgb(37,50,73)" clip-path="url(#clip8)" />
<clipPath id="clip9"><path d="M13,15 L619,15 L619,307 L13,307 Z M151,117 L151,194 L420,194 L420,117 Z" /></clipPath>
<path d="M151,144.0899811 L151,139 L91,139" style="fill:none;stroke:rgb(37,50,73)" clip-path="url(#clip9)" />
<clipPath id="clip10"><path d="M13,15 L619,15 L619,307 L13,307 Z M151,117 L151,194 L420,194 L420,117 Z" /></clipPath>
<path d="M228.6666718,117 L228.6666718,61 L146,61" style="fill:none;stroke:rgb(37,50,73)" clip-path="url(#clip10)" />
<clipPath id="clip11"><path d="M147,113 L425,113 L425,199 L147,199 L147,113 Z" /></clipPath>
<path d="M151,195 L420,195 Z" style="fill:none;stroke:rgb(37,50,73);stroke-width:5" clip-path="url(#clip11)" />
<clipPath id="clip12"><path d="M185,134 L387,134 L387,178 L185,178 L185,134 Z" /></clipPath>
<path d="M206.2783356,156.637207 C206.2783356,163.1791992 203.2386169,166.4501953 197.1591949,166.4501953 C191.2874451,166.4501953 188.3515778,163.2641602 188.3515778,156.8920898 L188.3515778,144.1337891 L193.0385895,144.1337891 L193.0385895,156.9204102 C193.0385895,160.5737305 194.4782104,162.4003906 197.3574371,162.4003906 C200.1894684,162.4003906 201.605484,160.6398163 201.605484,157.1186523 L201.605484,144.1337891 L206.2783356,144.1337891 Z M231.2710114,166.0678711 L226.4848785,166.0678711 L217.195816,151.8793945 C216.7143707,151.1430664 216.3650818,150.5483398 216.1479645,150.0952148 L216.0771637,150.0952148 C216.1621094,150.8504181 216.2045898,152.0162811 216.2046051,153.5927734 L216.2046051,166.0678711 L211.7724762,166.0678711 L211.7724762,144.1337891 L216.8701324,144.1337891 L225.8193512,157.9257813 C226.4140778,158.8414764 226.7775269,159.4220428 226.9096832,159.6674805 L226.980484,159.6674805 C226.8860779,159.1388397 226.8388824,158.1287384 226.8388824,156.637207 L226.8388824,144.1337891 L231.2710114,144.1337891 Z M241.7636871,144.1337891 L241.7636871,166.0678711 L237.0908356,166.0678711 L237.0908356,144.1337891 Z M264.7456055,166.0678711 L259.1948242,166.0678711 L255.258316,158.7895508 C255.1167145,158.5252228 254.9703979,158.0485077 254.8193512,157.359375 L254.7627106,157.359375 C254.6871948,157.6992188 254.5172729,158.1901093 254.2529449,158.8320313 L250.3022614,166.0678711 L244.7089996,166.0678711 L251.7465973,155.09375 L245.3178864,144.1337891 L251.0102692,144.1337891 L254.2812653,150.8457031 C254.5455933,151.3932343 254.7721558,151.9973907 254.9609528,152.6582031 L255.0175934,152.6582031 C255.2158356,152.0634766 255.4565582,151.4357147 255.7397614,150.7749023 L259.3505859,144.1337891 L264.5756836,144.1337891 L257.9487305,155.0087891 Z M288.902832,152.8564453 C290.9041443,156.2360077 292.6222534,159.3134766 294.0571289,162.0888672 L290.6303711,163.9296875 C289.2332458,161.1259766 287.7322693,158.1948242 286.1274414,155.1362305 L286.1274414,169.8486328 L282.3041992,169.8486328 L282.3041992,156.9487305 C280.9920349,159.4031525 279.472168,161.7112579 277.7446289,163.8730469 C277.2160034,163.4010468 276.7298279,162.9762421 276.2861328,162.5986328 C276.1917419,163.3916016 276.1209412,164.5338593 276.0737305,166.0253906 L266.3032227,167.5546875 L265.878418,163.703125 L269.418457,163.2924805 L269.418457,156.9912109 L266.4731445,156.9912109 L266.4731445,153.2246094 L269.418457,153.2246094 L269.418457,147.6455078 L266.3032227,147.6455078 L266.3032227,143.8789063 L276.2719727,143.8789063 L276.2719727,147.6455078 L273.1850586,147.6455078 L273.1850586,153.2246094 L276.1870117,153.2246094 L276.1870117,156.9912109 L273.1850586,156.9912109 L273.1850586,162.7685547 L275.9604492,162.3295898 C275.4412537,161.88591 274.9786987,161.5130157 274.5727539,161.2109375 C278.178894,156.9628906 280.7088318,152.4127655 282.1625977,147.5605469 L277.3198242,147.5605469 L277.3198242,143.7939453 L293.0375977,143.7939453 L293.0375977,147.5605469 L286.1557617,147.5605469 C285.6837769,149.1464844 285.1456909,150.6852264 284.5415039,152.1767578 L286.1274414,152.1767578 L286.1274414,154.3291016 Z M322.7597656,146.8525391 L318.0302734,146.8525391 L320.5791016,147.4755859 C320.2392578,147.9570313 319.875824,148.4479218 319.4887695,148.9482422 L323.609375,148.9482422 L323.609375,151.7802734 L304.9462891,151.7802734 L304.9462891,148.9482422 L308.3447266,148.9482422 L307.3251953,147.4472656 L310.0014648,146.8525391 L305.5976563,146.8525391 L305.5976563,144.0205078 L311.644043,144.0205078 C311.3891602,143.5296173 311.1012573,143.0104218 310.7802734,142.4628906 L315.4814453,141.8115234 C315.6985779,142.5006561 315.90625,143.2369843 316.1044922,144.0205078 L322.7597656,144.0205078 Z M312.8334961,148.9482422 L315.0849609,148.9482422 C315.5569763,148.2496796 315.9723511,147.5511017 316.3310547,146.8525391 L311.2475586,146.8525391 C311.7856445,147.4567108 312.3143005,148.1552734 312.8334961,148.9482422 Z M296.5634766,167.5546875 L295.8271484,163.3349609 L298.5742188,162.5561523 L298.5742188,152.4882813 L296.1669922,152.4882813 L296.1669922,148.6083984 L298.5742188,148.6083984 L298.5742188,141.9248047 L302.3691406,141.9248047 L302.3691406,148.6083984 L304.3515625,148.6083984 L304.3515625,152.4882813 L302.3691406,152.4882813 L302.3691406,161.4233398 L304.8613281,160.6445313 C304.8235779,161.2958984 304.8046875,161.9567108 304.8046875,162.6269531 C304.8046875,163.2971954 304.8235779,163.9768829 304.8613281,164.6660156 C302.1992188,165.5533905 299.4332886,166.5162811 296.5634766,167.5546875 Z M305.5410156,153.0263672 L322.0800781,153.0263672 L322.0800781,163.3349609 L318.2001953,163.3349609 L318.2001953,165.4306641 C318.2001953,166.1292267 318.5494995,166.4785156 319.2480469,166.4785156 C319.7672729,166.4785156 320.135437,166.329834 320.3525391,166.0324707 C320.5696716,165.7351074 320.7301636,164.8642578 320.8339844,163.4199219 C321.8535156,163.891922 322.9108276,164.2884064 324.0058594,164.609375 C323.9020386,165.3834686 323.7415466,166.2071075 323.5244141,167.0803223 C323.307312,167.953537 322.8471069,168.600174 322.1437988,169.0202637 C321.4405212,169.4403534 320.4941406,169.6503906 319.3046875,169.6503906 L318.0585938,169.6503906 C315.7363281,169.6503906 314.5751953,168.6025391 314.5751953,166.5068359 L314.5751953,163.3349609 L312.7768555,163.3349609 C312.1915894,166.6012421 309.9118042,168.8857422 305.9375,170.1884766 C305.3144531,169.3199921 304.4554138,168.2154999 303.3603516,166.875 C306.4378357,166.0725861 308.2975464,164.8925781 308.9394531,163.3349609 L305.5410156,163.3349609 Z M318.4550781,155.6884766 L309.1660156,155.6884766 L309.1660156,156.9628906 L318.4550781,156.9628906 Z M318.4550781,160.6728516 L318.4550781,159.3984375 L309.1660156,159.3984375 L309.1660156,160.6728516 Z M326.3139648,167.2998047 L325.5776367,163.8447266 L333.3515625,162.8251953 C334.0029297,160.4274139 334.3286133,157.623703 334.3286133,154.4140625 L334.3286133,151.7236328 C332.8182068,154.4895782 331.6004333,156.5286407 330.675293,157.8408203 L333.7055664,157.5576172 C333.6111755,158.9925079 333.5545349,160.1158905 333.5356445,160.9277344 C330.741394,161.0787811 328.5890503,161.3053436 327.0786133,161.6074219 L326.1157227,158.4921875 C327.2202148,157.095047 328.3435974,155.4760742 329.4858398,153.6352539 C328.4379883,153.7013397 327.4562378,153.7910156 326.5405273,153.9042969 L325.6342773,150.8457031 C326.6349487,149.5240936 328.1642456,146.5504608 330.222168,141.9248047 L333.6772461,143.3408203 C331.7514648,146.9091797 330.3543396,149.3258514 329.4858398,150.5908203 C329.9861755,150.5813751 330.5997925,150.5625 331.3266602,150.5341797 C331.6665039,149.9300079 332.0063477,149.3069611 332.3461914,148.6650391 L334.3286133,149.4296875 L334.3286133,144.5869141 L341.5219727,144.5869141 C341.2576599,144.0205078 340.9650269,143.4352264 340.644043,142.8310547 L344.5239258,141.8115234 C345.090332,142.8782501 345.5529175,143.8033905 345.9116211,144.5869141 L352.5102539,144.5869141 L352.5102539,152.4882813 L337.6137695,152.4882813 C337.6137695,153.0641327 337.6090698,153.6305389 337.5996094,154.1875 L352.8217773,154.1875 L352.8217773,166.6484375 C352.8217773,167.4886017 352.684906,168.1494141 352.4111328,168.6308594 C352.1373901,169.1123047 351.7432556,169.421463 351.2287598,169.5583496 C350.7142944,169.6952362 349.4988708,169.8014374 347.5825195,169.8769531 C347.507019,169.4143829 347.4125977,168.9329376 347.2993164,168.4326172 L345.6567383,168.4326172 L345.6567383,163.25 L343.9575195,163.25 L343.9575195,168.8007813 L341.4936523,168.8007813 L341.4936523,163.25 L339.7944336,163.25 L339.7944336,169.7070313 L336.9907227,169.7070313 L336.9907227,158.4213867 C336.4904175,163.7550507 335.4331055,167.5641327 333.8188477,169.8486328 C333.0636597,169.2444611 332.110199,168.6780548 330.9584961,168.1494141 C331.3455505,167.6018829 331.6995544,167.0118866 332.0205078,166.3793945 Z M349.1118164,147.5888672 L337.6137695,147.5888672 L337.6137695,149.4863281 L349.1118164,149.4863281 Z M343.9575195,160.4179688 L345.6567383,160.4179688 L345.6567383,157.1611328 L343.9575195,157.1611328 Z M349.8198242,157.1611328 L348.1206055,157.1611328 L348.1206055,160.4179688 L349.8198242,160.4179688 Z M339.7944336,160.4179688 L341.4936523,160.4179688 L341.4936523,157.1611328 L339.7944336,157.1611328 Z M349.8198242,163.25 L348.1206055,163.25 L348.1206055,166.5917969 C348.9324646,166.6578827 349.4186401,166.6012421 349.5791016,166.421875 C349.7395935,166.2425079 349.8198242,166.0159454 349.8198242,165.7421875 Z M355.6679688,150.2792969 L359.4345703,150.2792969 L359.4345703,147.1640625 C358.3112183,147.2773438 357.1878357,147.3717499 356.0644531,147.4472656 C355.932312,146.0123749 355.7623901,144.8040314 355.5546875,143.8222656 C358.5377808,143.6712189 361.8984375,143.2747345 365.6367188,142.6328125 L366.5146484,146.1728516 C365.3629761,146.3805389 364.2112732,146.564621 363.0595703,146.7250977 L363.0595703,150.2792969 L366.2880859,150.2792969 L366.2880859,153.6494141 L363.0595703,153.6494141 L363.0595703,156.7646484 L363.8525391,155.9716797 C364.7965698,156.7646484 366.0237732,157.8785858 367.5341797,159.3134766 L365.0136719,161.7490234 C364.3434448,160.9182892 363.6920776,160.1442108 363.0595703,159.4267578 L363.0595703,169.9902344 L359.4345703,169.9902344 L359.4345703,159.0727539 C358.7360229,161.1967773 357.8769531,163.2216797 356.8574219,165.1474609 C356.4987183,163.5237579 356.0455933,161.9378204 355.4980469,160.3896484 C356.7441406,158.6621094 357.8769531,156.4153595 358.8964844,153.6494141 L355.6679688,153.6494141 Z M367.2792969,143.1142578 L382.0341797,143.1142578 L382.0341797,152.6298828 L367.2792969,152.6298828 Z M378.2675781,146.3994141 L371.0458984,146.3994141 L371.0458984,149.3447266 L378.2675781,149.3447266 Z M365.2402344,165.8271484 L372.7167969,165.8271484 L372.7167969,163.3916016 L367.1660156,163.3916016 L367.1660156,160.2197266 L372.7167969,160.2197266 L372.7167969,157.8691406 L366.65625,157.8691406 L366.65625,154.5839844 L382.96875,154.5839844 L382.96875,157.8691406 L376.5966797,157.8691406 L376.5966797,160.2197266 L382.2041016,160.2197266 L382.2041016,163.3916016 L376.5966797,163.3916016 L376.5966797,165.8271484 L383.6484375,165.8271484 L383.6484375,169.1123047 L365.2402344,169.1123047 Z" style="fill:rgb(37,50,73);stroke:none" clip-path="url(#clip12)" />
<clipPath id="clip13"><path d="M422,14 L620,14 L620,64 L422,64 L422,14 Z" /></clipPath>
<path d="M425,61 L616,61 Z" style="fill:none;stroke:rgb(37,50,73);stroke-width:4" clip-path="url(#clip13)" />
<clipPath id="clip14"><path d="M438,25 L604,25 L604,53 L438,53 L438,25 Z" /></clipPath>
<path d="M448.4741211,44.9350586 L440.9287109,44.9350586 L440.9287109,32.0771484 L443.6679688,32.0771484 L443.6679688,42.6938477 L448.4741211,42.6938477 Z M453.2387695,32.0771484 L453.2387695,44.9350586 L450.4995117,44.9350586 L450.4995117,32.0771484 Z M467.8149414,44.9350586 L465.0092773,44.9350586 L459.5639648,36.6176758 C459.2817383,36.1860352 459.0769958,35.8374023 458.949707,35.5717773 L458.9082031,35.5717773 C458.9580078,36.0144806 458.9829102,36.6979141 458.9829102,37.6220703 L458.9829102,44.9350586 L456.3847656,44.9350586 L456.3847656,32.0771484 L459.3730469,32.0771484 L464.6191406,40.1621094 C464.9677734,40.6988907 465.1808472,41.0392227 465.2583008,41.1831055 L465.2998047,41.1831055 C465.2444763,40.8732071 465.2167969,40.2810822 465.2167969,39.4067383 L465.2167969,32.0771484 L467.8149414,32.0771484 Z M481.6108398,39.4067383 C481.6108398,43.2416992 479.828949,45.1591721 476.2651367,45.1591797 C472.8230896,45.1591721 471.1020508,43.2915039 471.1020508,39.5561523 L471.1020508,32.0771484 L473.8496094,32.0771484 L473.8496094,39.5727539 C473.8496094,41.7143555 474.6935425,42.7851563 476.3813477,42.7851563 C478.0415039,42.7851563 478.871582,41.7530899 478.871582,39.6889648 L478.871582,32.0771484 L481.6108398,32.0771484 Z M495.1577148,44.9350586 L491.9038086,44.9350586 L489.5961914,40.668457 C489.5131836,40.513504 489.4274292,40.2340469 489.3388672,39.8300781 L489.3056641,39.8300781 C489.2614136,40.0292969 489.1618042,40.3170547 489.0068359,40.6933594 L486.690918,44.9350586 L483.4121094,44.9350586 L487.5375977,38.5019531 L483.769043,32.0771484 L487.105957,32.0771484 L489.0234375,36.0117188 C489.1784058,36.3326797 489.3112183,36.6868439 489.421875,37.0742188 L489.4550781,37.0742188 C489.5712891,36.7255859 489.7124023,36.3575821 489.878418,35.9702148 L491.9951172,32.0771484 L495.0581055,32.0771484 L491.1733398,38.4521484 Z M496.519043,31.8779297 C501.9422302,31.9000626 506.8618164,31.6842422 511.277832,31.2304688 L511.6098633,33.0566406 C509.3852539,33.266922 507.0582886,33.4384766 504.6289063,33.5712891 C503.4778748,34.2685547 502.2576599,34.9326172 500.9682617,35.5634766 L506.4550781,35.3144531 C507.2796326,34.8496094 508.1235352,34.3570938 508.9868164,33.8369141 L510.5473633,35.3974609 C507.4484253,37.1129532 504.150238,38.6292267 500.652832,39.9462891 C503.0379333,39.8411407 505.4396362,39.7027969 507.8579102,39.53125 C507.4318237,39.110672 507.027832,38.7288361 506.6459961,38.3857422 L508.1899414,37.140625 C509.0421753,37.8821564 510.3924255,39.1826172 512.2407227,41.0419922 L510.6635742,42.4863281 C510.2706909,42.0491486 509.8916016,41.636879 509.5263672,41.2495117 L505.5170898,41.4072266 L505.5170898,45.3085938 C505.5170898,45.8675079 505.3538513,46.2936172 505.0273438,46.5869141 C504.7008667,46.8802032 504.2028198,47.039299 503.5332031,47.064209 C502.8636169,47.0891113 501.9699097,47.1015625 500.8520508,47.1015625 C500.7524414,46.2936172 500.6085815,45.5410156 500.4204102,44.84375 C500.962738,44.8880157 501.5410156,44.9101563 502.1552734,44.9101563 C502.6035156,44.9101563 502.8995972,44.8603516 503.043457,44.7607422 C503.1873474,44.6611328 503.2592773,44.4729767 503.2592773,44.1962891 L503.2592773,41.5151367 C500.7801208,41.6424103 498.882019,41.7835236 497.5649414,41.9384766 L496.9838867,39.8798828 C498.8543396,39.1715469 500.8769531,38.2612305 503.0517578,37.1489258 C500.8548279,37.2817383 499.1586914,37.4339142 497.9633789,37.6054688 L497.3491211,35.5800781 C498.5555115,35.1318359 499.8117065,34.52034 501.1176758,33.7456055 L496.8842773,33.8701172 C496.8068237,33.2392578 496.6850586,32.5751953 496.519043,31.8779297 Z M508.1899414,41.8720703 C509.418457,42.7132111 510.7963867,43.7369766 512.3237305,44.9433594 L510.7963867,46.5371094 C509.6121521,45.5188751 508.2785034,44.4508438 506.7954102,43.3330078 Z M499.7729492,42.0380859 L501.449707,43.515625 C500.1990662,44.688797 498.8322144,45.7623672 497.3491211,46.7363281 C496.8400269,46.0833282 496.3364258,45.4912033 495.8383789,44.9599609 C497.2661133,44.1520157 498.5776367,43.1780548 499.7729492,42.0380859 Z M527.9042969,42.0546875 C528.5683594,42.3867188 529.2324219,42.6634064 529.8964844,42.8847656 C529.7470703,44.5781174 529.4855957,45.6627579 529.1120605,46.1386719 C528.7385254,46.6145782 528.1478271,46.8525314 527.3398438,46.8525391 L526.3603516,46.8525391 C525.0875854,46.8525314 524.4456787,46.1497345 524.4345703,44.7441406 L524.4345703,39.4482422 L523.0898438,39.5478516 C523.0289917,41.977211 522.6582031,43.7466583 521.9775391,44.8562012 C521.296875,45.9657364 520.4723511,46.7639923 519.5039063,47.2509766 C519.0390625,46.7252579 518.4912109,46.146965 517.8603516,45.5161133 C516.3773193,45.6655273 514.9827881,45.8398438 513.6767578,46.0390625 L513.4941406,43.8310547 C514.5898438,43.7535782 516.4769287,43.5543594 519.1552734,43.2333984 C519.1276245,43.6484375 519.1110229,44.0939102 519.1054688,44.5698242 C520.3118896,43.7674103 520.9399414,42.1625977 520.9897461,39.7553711 C520.3699951,39.8273087 519.8746948,39.9020157 519.5039063,39.9794922 L518.90625,37.9541016 C519.7806396,37.4007111 520.7269287,36.2275391 521.7451172,34.4345703 L518.9394531,34.4345703 L518.9394531,32.5419922 L522.6166992,32.5419922 C522.434082,32.0992813 522.2265625,31.6344376 521.9941406,31.1474609 L524.4677734,30.6992188 C524.7666016,31.3024063 525.0516357,31.9166641 525.3227539,32.5419922 L529.4980469,32.5419922 L529.4980469,34.4345703 L524.1855469,34.4345703 C523.4606323,35.5634766 522.625,36.6757813 521.6787109,37.7714844 C523.067749,37.7216797 524.6005859,37.6469727 526.2773438,37.5473633 C525.901062,36.9773712 525.5026245,36.399086 525.0820313,35.8125 L526.7421875,34.8662109 C527.9154053,36.4156876 528.9225464,37.8600235 529.7636719,39.1992188 L527.9541016,40.2949219 C527.7659912,39.9573517 527.569519,39.6170197 527.3647461,39.2739258 L526.5595703,39.3154297 L526.5595703,44.0966797 C526.5595703,44.5283203 526.7034912,44.7441406 526.9912109,44.7441406 L527.140625,44.7441406 C527.4007568,44.7441406 527.5722656,44.6085587 527.6552734,44.3374023 C527.7382813,44.0662384 527.8212891,43.305336 527.9042969,42.0546875 Z M516.4492188,40.4775391 L518.90625,40.1953125 C518.817749,40.8815079 518.7789917,41.5123672 518.7900391,42.0878906 C516.9970703,42.1764297 515.4863281,42.3313751 514.2578125,42.5527344 L513.7431641,40.7099609 C514.3795776,40.0735626 515.1542969,39.0719376 516.0673828,37.7050781 C515.2041016,37.7659454 514.4902344,37.8378906 513.9257813,37.9208984 L513.328125,36.0449219 C514.3795776,34.6061172 515.3314209,32.8242188 516.1835938,30.6992188 L518.3583984,31.5625 C517.5504761,33.0787735 516.6761475,34.5065079 515.7353516,35.8457031 C516.1947021,35.8401642 516.7176514,35.8208008 517.3041992,35.7875977 L518.0595703,34.5341797 L519.7861328,35.4638672 C518.6351318,37.2789688 517.5228271,38.9501953 516.4492188,40.4775391 Z M547.402832,42.6689453 C546.9490967,43.3219376 546.5395508,43.9361954 546.1743164,44.5117188 C545.3110352,44.0358047 544.4864502,43.4768829 543.7006836,42.8349609 L543.7006836,43.9140625 L540.2641602,43.9140625 L540.2641602,44.9267578 L546.2241211,44.9267578 L546.2241211,46.6699219 L532.0131836,46.6699219 L532.0131836,44.9267578 L537.9897461,44.9267578 L537.9897461,43.9140625 L534.4702148,43.9140625 L534.4702148,42.9013672 C533.7010498,43.5100861 532.8986206,44.046875 532.0629883,44.5117188 C531.7420654,44.0026016 531.3270264,43.3938751 530.8178711,42.6855469 C532.201355,42.1653595 533.3717651,41.5123672 534.3291016,40.7265625 L531.0336914,40.7265625 L531.0336914,38.9833984 L533.9223633,38.9833984 L533.9223633,33.9365234 L531.5151367,33.9365234 L531.5151367,32.1933594 L533.9223633,32.1933594 L533.9223633,30.7490234 L536.1967773,30.7490234 L536.1967773,32.1933594 L542.0737305,32.1933594 L542.0737305,30.7490234 L544.331543,30.7490234 L544.331543,32.1933594 L546.7387695,32.1933594 L546.7387695,33.9365234 L544.331543,33.9365234 L544.331543,38.9833984 L547.2036133,38.9833984 L547.2036133,40.7265625 L543.9331055,40.7265625 C545.1063232,41.6009064 546.2628174,42.2483673 547.402832,42.6689453 Z M536.1967773,34.7666016 L542.0737305,34.7666016 L542.0737305,33.9365234 L536.1967773,33.9365234 Z M536.1967773,36.8916016 L542.0737305,36.8916016 L542.0737305,36.0615234 L536.1967773,36.0615234 Z M536.1967773,38.9833984 L542.0737305,38.9833984 L542.0737305,38.1533203 L536.1967773,38.1533203 Z M537.9897461,41.0419922 L540.2641602,41.0419922 L540.2641602,42.2041016 L542.9619141,42.2041016 C542.4527588,41.7503204 541.9603271,41.2578125 541.484375,40.7265625 L536.777832,40.7265625 C536.3019409,41.2578125 535.8066406,41.7503204 535.2919922,42.2041016 L537.9897461,42.2041016 Z M564.4609375,40.0292969 L564.4609375,47.2509766 L562.4521484,47.2509766 L562.4521484,46.6035156 L554.8984375,46.6035156 L554.8984375,40.0292969 L556.9072266,40.0292969 L556.9072266,44.6777344 L558.6503906,44.6777344 L558.6503906,38.7841797 L555.1972656,38.7841797 L555.1972656,32.7080078 L557.0898438,32.7080078 L557.0898438,36.8583984 L558.6503906,36.8583984 L558.6503906,30.8154297 L560.7753906,30.8154297 L560.7753906,36.8583984 L562.2363281,36.8583984 L562.2363281,32.6914063 L564.1289063,32.6914063 L564.1289063,38.7841797 L560.7753906,38.7841797 L560.7753906,44.6777344 L562.4521484,44.6777344 L562.4521484,40.0292969 Z M554.6328125,33.8369141 L552.5244141,33.8369141 C552.2919922,34.7666016 552.020813,35.6630859 551.7109375,36.5263672 L554.1513672,36.5263672 L554.1513672,46.2880859 L552.4912109,46.2880859 L552.4912109,45.4414063 L551.4619141,45.4414063 L551.4619141,46.5703125 L549.6191406,46.5703125 L549.6191406,40.8095703 C549.4420166,41.0862579 549.2649536,41.3518829 549.0878906,41.6064453 C548.8775635,40.6656876 548.5898438,39.8134766 548.2246094,39.0498047 C549.2539063,37.5335236 549.984375,35.7958984 550.4160156,33.8369141 L548.7890625,33.8369141 L548.7890625,31.9775391 L554.6328125,31.9775391 Z M552.4912109,38.3359375 L551.4619141,38.3359375 L551.4619141,43.6318359 L552.4912109,43.6318359 Z M565.996582,37.7216797 L569.2836914,37.7216797 C569.2947388,37.5722656 569.300293,36.6702423 569.300293,35.015625 L568.6279297,35.015625 C568.2183838,35.9397736 567.7618408,36.7809219 567.2583008,37.5390625 C566.7602539,36.8860626 566.262207,36.2718048 565.7641602,35.6962891 C566.6716919,34.2906876 567.3413086,32.6360626 567.7729492,30.7324219 L569.980957,31.1142578 C569.8149414,31.7506485 569.6323242,32.359375 569.4331055,32.9404297 L573.699707,32.9404297 L573.699707,35.015625 L571.5249023,35.015625 L571.5249023,37.7216797 L574.1313477,37.7216797 L574.1313477,39.796875 L571.3505859,39.796875 C571.3062744,40.0901642 571.2509766,40.3751602 571.1845703,40.6518555 C572.3134766,41.7530899 573.4119263,42.9013672 574.4799805,44.0966797 L572.6870117,45.7236328 C571.9454346,44.7386017 571.1956177,43.8006134 570.4375,42.909668 C569.7070313,44.5476837 568.6085205,45.9892578 567.1420898,47.234375 C566.6329346,46.3821564 566.1625977,45.6793594 565.730957,45.1259766 C567.4685669,43.7923126 568.5725708,42.0159454 569.0429688,39.796875 L565.996582,39.796875 Z M574.5463867,46.8691406 L574.5463867,32.1767578 L581.7016602,32.1767578 L581.7016602,46.7695313 L579.4272461,46.7695313 L579.4272461,45.375 L576.8208008,45.375 L576.8208008,46.8691406 Z M579.4272461,34.3515625 L576.8208008,34.3515625 L576.8208008,43.2001953 L579.4272461,43.2001953 Z M586.2089844,30.8984375 C586.9172974,31.8391876 587.6533203,32.8629532 588.4169922,33.9697266 L586.2919922,35.2978516 C585.6279297,34.1468048 584.9527588,33.0621719 584.2666016,32.0439453 Z M589.3466797,31.7119141 L598.7099609,31.7119141 L598.7099609,40.6933594 L589.3466797,40.6933594 Z M596.4189453,38.6679688 L596.4189453,33.7373047 L591.6376953,33.7373047 L591.6376953,38.6679688 Z M589.0644531,40.9921875 C589.1751099,42.032547 589.3023682,42.8515625 589.4462891,43.4492188 C587.8857422,44.6113281 586.7125244,45.5908203 585.9267578,46.3876953 L584.7480469,44.8603516 C584.9804688,44.5061798 585.1021729,44.0524063 585.1132813,43.4990234 L585.1132813,38.1533203 L583.4697266,38.1533203 L583.4697266,35.9121094 L587.3876953,35.9121094 L587.3876953,42.3535156 Z M591.4882813,41.2246094 L593.4472656,42.5195313 C592.1744385,44.2350235 590.8961182,45.8287735 589.6123047,47.3007813 C589.0588989,46.7916641 588.4280396,46.2659454 587.7197266,45.7236328 C589.0367432,44.4729767 590.2929688,42.9733047 591.4882813,41.2246094 Z M596.3525391,41.2412109 C597.6253052,42.6689453 598.8648682,44.1686172 600.0712891,45.7402344 L598.0126953,47.2011719 C596.8948364,45.5631485 595.7271729,43.9749298 594.5097656,42.4365234 Z" style="fill:rgb(37,50,73);stroke:none" clip-path="url(#clip14)" />
<clipPath id="clip15"><path d="M477,92 L602,92 L602,142 L477,142 L477,92 Z" /></clipPath>
<path d="M480,139 L598,139 Z" style="fill:none;stroke:rgb(37,50,73);stroke-width:4" clip-path="url(#clip15)" />
<clipPath id="clip16"><path d="M493,103 L586,103 L586,131 L493,131 L493,103 Z" /></clipPath>
<path d="M495.9272461,111.3637695 L502.8666992,111.3637695 C502.6951599,110.7993164 502.462738,110.1020508 502.1694336,109.2719727 L504.7094727,108.7573242 C505.1245117,109.8585587 505.4399414,110.7273712 505.6557617,111.3637695 L511.980957,111.3637695 L511.980957,113.6049805 L509.515625,113.6049805 C508.6800232,116.1173477 507.4764099,118.2395782 505.9047852,119.9716797 C507.6092224,121.1503906 509.7120972,122.0496368 512.2133789,122.6694336 C511.2947693,123.7872696 510.6860352,124.6007462 510.387207,125.1098633 C507.8582458,124.2631836 505.7111206,123.14534 503.9458008,121.7563477 C502.1694336,123.0955353 499.9891052,124.246582 497.4047852,125.2094727 C496.8071289,124.246582 496.2537537,123.4441681 495.7446289,122.8022461 C498.2293396,122.027504 500.3100586,121.0701447 501.9868164,119.9301758 C500.3930664,118.1538086 499.2641602,116.0454102 498.6000977,113.6049805 L495.9272461,113.6049805 Z M506.6933594,113.6049805 L501.1650391,113.6049805 C501.7350464,115.4200821 502.6591797,116.9889297 503.9375,118.3115234 C505.2268982,116.9833984 506.1455078,115.4145508 506.6933594,113.6049805 Z M518.1484375,117.722168 L523.4443359,117.722168 L523.4443359,114.5512695 L521.1616211,114.5512695 C520.8406982,115.597168 520.5003662,116.5323868 520.140625,117.3569336 C519.5319214,117.0249023 518.84021,116.6984024 518.0654297,116.3774414 C518.8070068,114.5955353 519.4378662,112.4373322 519.9580078,109.902832 L522.1992188,110.4506836 C522.0553589,111.136879 521.9059448,111.7898712 521.7509766,112.409668 L523.4443359,112.409668 L523.4443359,108.8237305 L525.8515625,108.8237305 L525.8515625,112.409668 L529.3212891,112.409668 L529.3212891,114.5512695 L525.8515625,114.5512695 L525.8515625,117.722168 L529.7695313,117.722168 L529.7695313,119.8637695 L525.8515625,119.8637695 L525.8515625,125.1928711 L523.4443359,125.1928711 L523.4443359,119.8637695 L518.1484375,119.8637695 Z M516.3554688,108.840332 L518.6464844,109.5043945 C518.2480469,110.6886368 517.838562,111.8037109 517.4179688,112.8496094 L517.4179688,125.1762695 L515.1933594,125.1762695 L515.1933594,117.6142578 C514.7451172,118.4277344 514.2858276,119.1775665 513.8154297,119.8637695 C513.6162109,118.6573868 513.4225464,117.6225586 513.234375,116.7592773 C514.3964844,114.5678711 515.4368896,111.9282227 516.3554688,108.840332 Z M530.7407227,119.8803711 C531.8585815,118.6961212 532.7550659,117.3071289 533.4301758,115.7133789 L530.8901367,115.7133789 L530.8901367,113.5717773 L533.7456055,113.5717773 L533.7456055,111.7456055 C532.965332,111.817543 532.1795654,111.878418 531.3881836,111.9282227 C531.3217773,111.341629 531.2332764,110.6665039 531.1225586,109.902832 C533.6791992,109.7036133 536.0145264,109.4711914 538.128418,109.2055664 L538.5268555,111.230957 C537.6801758,111.341629 536.8224487,111.4440079 535.9536133,111.5380859 L535.9536133,113.5717773 L538.5766602,113.5717773 L538.5766602,115.7133789 L535.9536133,115.7133789 L535.9536133,117.6225586 L536.5678711,116.9750977 C537.3979492,117.6170197 538.1948242,118.2810822 538.9584961,118.9672852 L537.5307617,120.6606445 C536.9884644,120.0795898 536.4627686,119.5483398 535.9536133,119.0668945 L535.9536133,125.0600586 L533.7456055,125.0600586 L533.7456055,119.1000977 C533.1258545,120.3507462 532.4119873,121.4851837 531.6040039,122.503418 C531.4047852,121.7950821 531.1170654,120.9207306 530.7407227,119.8803711 Z M539.1079102,124.3959961 L539.1079102,110.1850586 L546.4125977,110.1850586 L546.4125977,124.2963867 L544.1879883,124.2963867 L544.1879883,122.8520508 L541.3325195,122.8520508 L541.3325195,124.3959961 Z M544.1879883,112.3930664 L541.3325195,112.3930664 L541.3325195,120.644043 L544.1879883,120.644043 Z M549.9570313,125.1430664 L549.9570313,109.8032227 L563.0390625,109.8032227 L563.0390625,125.1430664 L560.6816406,125.1430664 L560.6816406,124.0141602 L552.3144531,124.0141602 L552.3144531,125.1430664 Z M560.6816406,111.9946289 L552.3144531,111.9946289 L552.3144531,113.8208008 L560.6816406,113.8208008 Z M552.3144531,117.7719727 L560.6816406,117.7719727 L560.6816406,115.9458008 L552.3144531,115.9458008 Z M552.3144531,121.8227539 L560.6816406,121.8227539 L560.6816406,119.8969727 L552.3144531,119.8969727 Z M565.8198242,115.4643555 L577.6401367,115.4643555 L577.6401367,114.3520508 L567.7788086,114.3520508 L567.7788086,112.5092773 L577.6401367,112.5092773 L577.6401367,111.3969727 L567.1977539,111.3969727 L567.1977539,109.4545898 L579.9145508,109.4545898 L579.9145508,115.4643555 L582.222168,115.4643555 L582.222168,117.4067383 L579.5991211,117.4067383 L581.1430664,119.0170898 C580.15802,119.6700821 579.2227783,120.3120117 578.3374023,120.9428711 C579.4663086,121.6069336 580.7722778,122.121582 582.2553711,122.4868164 C581.5913086,123.3722305 581.0987549,124.0639648 580.777832,124.5620117 C578.5532227,123.7651367 576.6882935,122.497879 575.1831055,120.7602539 L575.1831055,122.5698242 C575.1831055,124.2299805 574.491333,125.0932617 573.1079102,125.159668 C572.4438477,125.2039337 571.6137695,125.2316055 570.6176758,125.2426758 C570.4516602,124.4125977 570.2856445,123.7042618 570.1196289,123.1176758 C570.8943481,123.1730118 571.4920044,123.1951447 571.9125977,123.184082 C572.5766602,123.184082 572.9086914,122.8299103 572.9086914,122.121582 L572.9086914,121.2749023 C570.4073486,122.5698242 568.3875122,123.6599884 566.8491211,124.5454102 L565.753418,122.3540039 C567.081543,121.8006134 568.3432617,121.2416992 569.5385742,120.6772461 C568.6309814,119.8139648 567.789856,119.0890274 567.0151367,118.5024414 L567.9614258,117.4067383 L565.8198242,117.4067383 Z M572.9086914,118.9838867 L572.9086914,117.4067383 L568.824707,117.4067383 C569.4998169,117.9047852 570.2358398,118.4803009 571.0327148,119.1333008 L569.6713867,120.6108398 C570.8113403,120.0795898 571.8904419,119.5372696 572.9086914,118.9838867 Z M576.6274414,119.6977539 C577.5571289,119.0558243 578.4868164,118.2921524 579.4165039,117.4067383 L575.1831055,117.4067383 L575.1831055,118.0874023 C575.6036377,118.6850586 576.085083,119.2218399 576.6274414,119.6977539 Z" style="fill:rgb(37,50,73);stroke:none" clip-path="url(#clip16)" />
<clipPath id="clip17"><path d="M477,170 L567,170 L567,220 L477,220 L477,170 Z" /></clipPath>
<path d="M480,217 L563,217 Z" style="fill:none;stroke:rgb(37,50,73);stroke-width:4" clip-path="url(#clip17)" />
<clipPath id="clip18"><path d="M493,181 L551,181 L551,209 L493,209 L493,181 Z" /></clipPath>
<path d="M510.4516602,187.7866211 L510.4516602,189.496582 C508.9796448,190.935379 507.1036682,192.2026367 504.8237305,193.2983398 L507.5463867,193.2983398 C507.1479492,193.7299805 506.7329102,194.1450195 506.3012695,194.543457 L511.5473633,194.543457 L511.5473633,196.2202148 C508.3709106,200.1381836 503.5066528,202.5011292 496.9545898,203.309082 C496.6557617,202.5232697 496.3126526,201.8094025 495.925293,201.1674805 C498.227356,200.9682617 500.3302307,200.5587463 502.2338867,199.9389648 C501.8354492,199.4298401 501.3540039,198.8764648 500.7895508,198.2788086 C499.8155823,198.754715 498.7918091,199.1808167 497.7182617,199.5571289 C497.3198242,198.8598633 496.8771057,198.1847229 496.3901367,197.5317383 C499.8432617,196.6020508 502.6489258,195.1964417 504.8071289,193.3149414 C502.5493164,194.3995667 499.8985901,195.3126526 496.8549805,196.0541992 C496.5339966,195.2351837 496.1853638,194.5102539 495.809082,193.8793945 C497.7016602,193.5805664 499.4724731,193.1599884 501.121582,192.6176758 C500.6788635,192.108551 500.1808167,191.58284 499.6274414,191.0405273 C498.9744263,191.4389648 498.2882385,191.8208008 497.5688477,192.1860352 C497.1814575,191.577301 496.6889648,190.9519806 496.0913086,190.3100586 C498.3380432,189.4799805 500.2749023,188.2735901 501.9018555,186.690918 L504.6245117,186.690918 C504.3256836,187.067215 504.0102539,187.4324493 503.6782227,187.7866211 Z M501.2543945,189.9448242 C501.9405823,190.5646057 502.5880432,191.1899414 503.1967773,191.8208008 C504.5138245,191.3006134 505.8640747,190.5756836 507.2475586,189.6459961 L501.6196289,189.6459961 C501.4978638,189.7456055 501.3761292,189.8452148 501.2543945,189.9448242 Z M502.5161133,197.3491211 C503.15802,197.95784 503.7390747,198.5610352 504.2592773,199.1586914 C505.8972778,198.4060822 507.3250122,197.4874573 508.5424805,196.402832 L503.9770508,196.402832 C503.5011292,196.7348633 503.0141602,197.050293 502.5161133,197.3491211 Z M513.5478516,202.2631836 L513.1162109,199.9389648 C515.1083984,199.6844025 517.1503906,199.3911133 519.2421875,199.059082 C519.2144775,199.4077148 519.197876,199.78125 519.1923828,200.1796875 C520.4651489,199.78125 521.6521606,199.2942657 522.753418,198.71875 C522.5043945,197.9329376 522.3051758,197.0004883 522.1557617,195.9213867 L519.3583984,196.253418 L519.0761719,194.2446289 L521.9399414,193.9042969 L521.840332,192.2441406 L519.6572266,192.4682617 L519.5576172,191.5800781 C518.4453125,193.4173126 517.4436646,194.9363556 516.5527344,196.137207 C517.5488281,195.9933167 518.3789063,195.8605042 519.0429688,195.7387695 C518.9876099,196.1925354 518.932251,196.8842773 518.8769531,197.8139648 C516.4973755,198.1238556 514.9036255,198.3894806 514.0957031,198.6108398 L513.4814453,196.7514648 C514.1842041,196.0874023 514.9589844,195.1189728 515.8056641,193.8461914 C515.2080078,193.8959961 514.5162354,193.9624023 513.7304688,194.0454102 L513.1162109,192.152832 C514.03479,191.0239258 515.036438,189.2143555 516.1210938,186.7241211 L518.2294922,187.5541992 C517.2554932,189.2807617 516.3811646,190.7472229 515.6064453,191.9536133 C516.0214844,191.9480743 516.4918213,191.9314728 517.0175781,191.9038086 C517.3164063,191.3891602 517.6262817,190.8413086 517.9472656,190.2602539 L519.4995117,190.9907227 L519.4414063,190.4428711 L521.7241211,190.21875 L521.5830078,186.7739258 L523.8242188,186.7739258 C523.8408203,187.8972931 523.8712158,188.9736328 523.9155273,190.0029297 L526.8125,189.7207031 C526.1484375,189.2337189 525.3792114,188.7163086 524.5048828,188.168457 L525.5839844,186.7407227 C526.4804688,187.2277069 527.3769531,187.7589569 528.2734375,188.3344727 L527.2607422,189.6708984 L528.8544922,189.5131836 L529.0537109,191.5053711 L524.0234375,192.0200195 L524.1479492,193.6469727 L529.3027344,193.0327148 L529.5185547,195.0249023 L527.5180664,195.265625 L528.9873047,196.4360352 C527.9136963,197.6092072 526.7571411,198.6329651 525.5175781,199.5073242 C525.9768677,200.232254 526.3946533,200.5947266 526.7709961,200.5947266 C526.9702148,200.5947266 527.1334229,200.4605255 527.2607422,200.1921387 C527.3880005,199.9237366 527.5595703,199.2195587 527.7753906,198.0795898 C528.5390625,198.4780273 529.1865234,198.7989807 529.7177734,199.0424805 C529.291626,200.763504 528.8724365,201.8688965 528.4602051,202.3586426 C528.0479126,202.8483887 527.5706177,203.0932617 527.0283203,203.0932617 C525.6171875,203.0932617 524.4716797,202.2991486 523.5917969,200.7109375 C522.269165,201.4358673 520.8635864,202.0141602 519.375,202.4458008 C519.2089844,202.097168 519.0152588,201.7263947 518.7939453,201.3334961 C516.8183594,201.6433868 515.0696411,201.9532776 513.5478516,202.2631836 Z M527.3271484,195.2905273 L524.3969727,195.6474609 C524.5020752,196.283844 524.6238403,196.9008789 524.762207,197.4985352 C525.6918945,196.8399963 526.546875,196.1040039 527.3271484,195.2905273 Z M530.7885742,191.6049805 L532.996582,191.6049805 L532.996582,189.7788086 C532.3380127,189.8452148 531.6795044,189.9005432 531.0209961,189.9448242 C530.9434814,189.1036682 530.8438721,188.39534 530.722168,187.8198242 C532.4708252,187.7312775 534.440918,187.4988556 536.6323242,187.1225586 L537.1469727,189.1977539 C536.4718018,189.3194885 535.7966919,189.4273987 535.121582,189.5214844 L535.121582,191.6049805 L537.0141602,191.6049805 L537.0141602,193.5805664 L535.121582,193.5805664 L535.121582,195.4067383 L535.5864258,194.9418945 C536.1397705,195.4067383 536.8591919,196.0597229 537.7446289,196.9008789 L536.2670898,198.3286133 C535.8741455,197.841629 535.4923096,197.3878479 535.121582,196.9672852 L535.121582,203.159668 L532.996582,203.159668 L532.996582,196.7597656 C532.5870361,198.0048828 532.0834961,199.1918945 531.4858398,200.3208008 C531.2755127,199.3689728 531.0098877,198.4392853 530.6889648,197.5317383 C531.4194336,196.519043 532.0834961,195.2019806 532.6811523,193.5805664 L530.7885742,193.5805664 Z M537.5952148,187.4047852 L546.2446289,187.4047852 L546.2446289,192.9829102 L537.5952148,192.9829102 Z M544.0366211,189.3305664 L539.8032227,189.3305664 L539.8032227,191.0571289 L544.0366211,191.0571289 Z M536.3999023,200.7192383 L540.7827148,200.7192383 L540.7827148,199.2915039 L537.5288086,199.2915039 L537.5288086,197.4321289 L540.7827148,197.4321289 L540.7827148,196.0541992 L537.2299805,196.0541992 L537.2299805,194.128418 L546.7924805,194.128418 L546.7924805,196.0541992 L543.0571289,196.0541992 L543.0571289,197.4321289 L546.3442383,197.4321289 L546.3442383,199.2915039 L543.0571289,199.2915039 L543.0571289,200.7192383 L547.190918,200.7192383 L547.190918,202.6450195 L536.3999023,202.6450195 Z" style="fill:rgb(37,50,73);stroke:none" clip-path="url(#clip18)" />
<clipPath id="clip19"><path d="M422,248 L564,248 L564,298 L422,298 L422,248 Z" /></clipPath>
<path d="M425,295 L560,295 Z" style="fill:none;stroke:rgb(37,50,73);stroke-width:4" clip-path="url(#clip19)" />
<clipPath id="clip20"><path d="M438,259 L548,259 L548,287 L438,287 L438,259 Z" /></clipPath>
<path d="M440.9812012,275.7226563 C442.0160522,276.5803833 443.1919861,277.0092773 444.5090332,277.0092773 C445.2561035,277.0092773 445.8178101,276.8806152 446.1940918,276.623291 C446.5704041,276.3659668 446.7585449,276.0353088 446.7585449,275.6313477 C446.7585449,275.2827148 446.6091309,274.9534302 446.3103027,274.6435547 C446.0114746,274.3336487 445.2229004,273.9130859 443.9445801,273.3818359 C441.935791,272.5296021 440.9313965,271.2900391 440.9313965,269.6630859 C440.9313965,268.4677734 441.3865662,267.5394592 442.296875,266.8781738 C443.2072144,266.2168579 444.4122009,265.8862305 445.9118652,265.8862305 C447.1680603,265.8862305 448.2222595,266.049469 449.0744629,266.3759766 L449.0744629,268.9492188 C448.2111816,268.3626099 447.2012634,268.0693359 446.0446777,268.0693359 C445.3695679,268.0693359 444.8300171,268.1924438 444.4260254,268.4387207 C444.0220642,268.684967 443.8200684,269.015625 443.8200684,269.4306641 C443.8200684,269.7626953 443.9584351,270.0684204 444.2351074,270.3479004 C444.5118103,270.6273499 445.1952515,271.0050354 446.2854004,271.480957 C447.5637207,272.0288086 448.4422302,272.6070862 448.9208984,273.2158203 C449.3995972,273.8245239 449.638916,274.549469 449.638916,275.390625 C449.638916,276.6246643 449.2017517,277.5654297 448.3273926,278.2128906 C447.453064,278.8603516 446.2106934,279.184082 444.6003418,279.184082 C443.1283569,279.184082 441.9219666,278.946106 440.9812012,278.4702148 Z M451.2990723,272.7011719 C451.2990723,270.6868286 451.8870544,269.0474243 453.0629883,267.782959 C454.2389526,266.5184631 455.792572,265.8862305 457.723877,265.8862305 C459.5611267,265.8862305 461.0400391,266.4977112 462.1606445,267.7207031 C463.28125,268.9436646 463.8415527,270.5152893 463.8415527,272.4355469 C463.8415527,274.4387817 463.2591248,276.0643616 462.0942383,277.3122559 C460.9293823,278.5601196 459.4034119,279.184082 457.5163574,279.184082 C455.673584,279.184082 454.1766968,278.5794983 453.0256348,277.3703613 C451.8746033,276.1611938 451.2990723,274.6047974 451.2990723,272.7011719 Z M454.1794434,272.5517578 C454.1794434,273.8023987 454.4810486,274.8247681 455.0842285,275.6188965 C455.687439,276.4129944 456.51474,276.8100586 457.5661621,276.8100586 C458.63974,276.8100586 459.4753418,276.4295959 460.072998,275.6687012 C460.6706543,274.9077759 460.9694824,273.8854065 460.9694824,272.6015625 C460.9694824,271.2623596 460.6789551,270.20401 460.0979004,269.4265137 C459.5168457,268.6489868 458.6978455,268.2602539 457.6408691,268.2602539 C456.5673218,268.2602539 455.7220154,268.6586914 455.1049805,269.4555664 C454.4879761,270.2524414 454.1794434,271.2844849 454.1794434,272.5517578 Z M475.6037598,278.4951172 C474.6685486,278.9544067 473.4483337,279.184082 471.9431152,279.184082 C470.0062866,279.184082 468.4692383,278.6044006 467.3320313,277.4450684 C466.1948242,276.2857056 465.6262207,274.740387 465.6262207,272.809082 C465.6262207,270.7781372 466.2612305,269.1166077 467.53125,267.8244629 C468.8012695,266.5322876 470.4406738,265.8862305 472.4494629,265.8862305 C473.705658,265.8862305 474.7570801,266.049469 475.6037598,266.3759766 L475.6037598,269.0239258 C474.7349548,268.514801 473.749939,268.2602539 472.6486816,268.2602539 C471.3925171,268.2602539 470.3881226,268.661438 469.635498,269.4638672 C468.8829041,270.2662659 468.5065918,271.3149414 468.5065918,272.6098633 C468.5065918,273.871582 468.8635254,274.8870239 469.5773926,275.65625 C470.2912598,276.4254456 471.2569275,276.8100586 472.4743652,276.8100586 C473.619873,276.8100586 474.6630249,276.5333557 475.6037598,275.9799805 Z M488.7023926,278.9599609 L485.232666,278.9599609 L481.3395996,273.340332 C481.2399902,273.1964417 481.1265564,272.9723206 480.9992676,272.6679688 L480.9577637,272.6679688 L480.9577637,278.9599609 L478.2185059,278.9599609 L478.2185059,266.1020508 L480.9577637,266.1020508 L480.9577637,272.1782227 L480.9992676,272.1782227 C481.1210327,271.9125977 481.2427673,271.6829224 481.364502,271.4892578 L485.0500488,266.1020508 L488.3205566,266.1020508 L483.7219238,272.2363281 Z M497.9660645,278.9599609 L490.354248,278.9599609 L490.354248,266.1020508 L497.6672363,266.1020508 L497.6672363,268.3432617 L493.0935059,268.3432617 L493.0935059,271.3730469 L497.3435059,271.3730469 L497.3435059,273.605957 L493.0935059,273.605957 L493.0935059,276.71875 L497.9660645,276.71875 Z M509.2385254,268.3432617 L505.5695801,268.3432617 L505.5695801,278.9599609 L502.8220215,278.9599609 L502.8220215,268.3432617 L499.161377,268.3432617 L499.161377,266.1020508 L509.2385254,266.1020508 Z M510.4587402,279.6821289 L510.0270996,277.6567383 L514.5842285,277.059082 C514.9660645,275.6534729 515.1569824,274.0099182 515.1569824,272.128418 L515.1569824,270.5512695 C514.2716064,272.1726685 513.5577393,273.367981 513.0153809,274.137207 L514.791748,273.9711914 C514.7364502,274.8123169 514.7032471,275.4708557 514.6921387,275.9467773 C513.0541382,276.0353088 511.7924194,276.1681213 510.9069824,276.3452148 L510.3425293,274.519043 C510.9899902,273.7000122 511.6485291,272.7509766 512.3181152,271.671875 C511.7038574,271.7106018 511.1283569,271.7631836 510.5915527,271.8295898 L510.0603027,270.0366211 C510.6469116,269.2618713 511.543396,267.5187073 512.7497559,264.8071289 L514.7751465,265.637207 C513.6462402,267.7290039 512.8272705,269.1456604 512.3181152,269.887207 C512.6114502,269.8816528 512.9711304,269.8706055 513.3972168,269.8540039 C513.5964355,269.4998169 513.7956543,269.1345825 513.994873,268.7583008 L515.1569824,269.206543 L515.1569824,266.3676758 L519.3737793,266.3676758 C519.2188721,266.0356445 519.0473022,265.6925354 518.8591309,265.3383789 L521.1335449,264.7407227 C521.4655762,265.3660278 521.7367554,265.9083557 521.9470215,266.3676758 L525.8151855,266.3676758 L525.8151855,270.9995117 L517.0827637,270.9995117 C517.0827637,271.3370667 517.0800171,271.6690979 517.0744629,271.9956055 L525.9978027,271.9956055 L525.9978027,279.300293 C525.9978027,279.7927856 525.9176025,280.1801758 525.7570801,280.4624023 C525.5966187,280.7446289 525.3656006,280.9258423 525.0639648,281.0061035 C524.7623901,281.0863342 524.0499268,281.1485901 522.9265137,281.1928711 C522.8822632,280.9216919 522.8269043,280.6394653 522.760498,280.3461914 L521.7976074,280.3461914 L521.7976074,277.3081055 L520.8015137,277.3081055 L520.8015137,280.5620117 L519.3571777,280.5620117 L519.3571777,277.3081055 L518.361084,277.3081055 L518.361084,281.0932617 L516.7175293,281.0932617 L516.7175293,274.4775391 C516.4242554,277.6041565 515.8044434,279.8370667 514.8581543,281.1762695 C514.4154663,280.8220825 513.8565674,280.4900513 513.1813965,280.1801758 C513.4083252,279.8591919 513.6158447,279.5133362 513.8039551,279.1425781 Z M523.822998,268.1274414 L517.0827637,268.1274414 L517.0827637,269.2397461 L523.822998,269.2397461 Z M520.8015137,275.6479492 L521.7976074,275.6479492 L521.7976074,273.7387695 L520.8015137,273.7387695 Z M524.2380371,273.7387695 L523.2419434,273.7387695 L523.2419434,275.6479492 L524.2380371,275.6479492 Z M518.361084,275.6479492 L519.3571777,275.6479492 L519.3571777,273.7387695 L518.361084,273.7387695 Z M524.2380371,277.3081055 L523.2419434,277.3081055 L523.2419434,279.2670898 C523.7178955,279.3058167 524.0028687,279.2726135 524.0969238,279.1674805 C524.19104,279.0623169 524.2380371,278.9295044 524.2380371,278.769043 Z M527.6662598,269.7045898 L529.8742676,269.7045898 L529.8742676,267.878418 C529.2157593,267.9448242 528.557251,268.0001526 527.8986816,268.0444336 C527.821228,267.2032776 527.7216187,266.4949341 527.5998535,265.9194336 C529.3485718,265.8308716 531.3186035,265.5984497 533.5100098,265.222168 L534.0246582,267.2973633 C533.3495483,267.4190979 532.6744385,267.5270081 531.9992676,267.6210938 L531.9992676,269.7045898 L533.8918457,269.7045898 L533.8918457,271.6801758 L531.9992676,271.6801758 L531.9992676,273.5063477 L532.4641113,273.0415039 C533.0175171,273.5063477 533.7369385,274.1593323 534.6223145,275.0004883 L533.1447754,276.4282227 C532.7518921,275.9412231 532.3700562,275.4874573 531.9992676,275.0668945 L531.9992676,281.2592773 L529.8742676,281.2592773 L529.8742676,274.859375 C529.4647827,276.1044922 528.9611816,277.2915039 528.3635254,278.4204102 C528.1532593,277.4685669 527.8876343,276.5388794 527.5666504,275.6313477 C528.2971191,274.6186523 528.9611816,273.3015747 529.5588379,271.6801758 L527.6662598,271.6801758 Z M534.4729004,265.5043945 L543.1223145,265.5043945 L543.1223145,271.0825195 L534.4729004,271.0825195 Z M540.9143066,267.4301758 L536.6809082,267.4301758 L536.6809082,269.1567383 L540.9143066,269.1567383 Z M533.2775879,278.8188477 L537.6604004,278.8188477 L537.6604004,277.3911133 L534.4064941,277.3911133 L534.4064941,275.5317383 L537.6604004,275.5317383 L537.6604004,274.1538086 L534.107666,274.1538086 L534.107666,272.2280273 L543.670166,272.2280273 L543.670166,274.1538086 L539.9348145,274.1538086 L539.9348145,275.5317383 L543.2219238,275.5317383 L543.2219238,277.3911133 L539.9348145,277.3911133 L539.9348145,278.8188477 L544.0686035,278.8188477 L544.0686035,280.7446289 L533.2775879,280.7446289 Z" style="fill:rgb(37,50,73);stroke:none" clip-path="url(#clip20)" />
<clipPath id="clip21"><path d="M50,248 L150,248 L150,298 L50,298 L50,248 Z" /></clipPath>
<path d="M53,295 L146,295 Z" style="fill:none;stroke:rgb(37,50,73);stroke-width:4" clip-path="url(#clip21)" />
<clipPath id="clip22"><path d="M66,259 L134,259 L134,287 L66,287 L66,259 Z" /></clipPath>
<path d="M71.6550293,266.0854492 L71.6550293,278.9433594 L68.9157715,278.9433594 L68.9157715,266.0854492 Z M77.5402832,274.4609375 L77.5402832,278.9433594 L74.8010254,278.9433594 L74.8010254,266.0854492 L79.2253418,266.0854492 C82.4239044,266.0854492 84.0231934,267.4412231 84.0231934,270.152832 C84.0231934,271.4698792 83.5403595,272.5254517 82.574707,273.3195801 C81.6090393,274.113678 80.4012756,274.4941406 78.951416,274.4609375 Z M77.5402832,268.2104492 L77.5402832,272.3608398 L78.7272949,272.3608398 C80.3376465,272.3608398 81.1428223,271.6607971 81.1428223,270.2607422 C81.1428223,268.8938599 80.3459473,268.2104492 78.7521973,268.2104492 Z M95.4782715,278.4785156 C94.543045,278.9378052 93.3228302,279.1674805 91.817627,279.1674805 C89.8807678,279.1674805 88.34375,278.5877991 87.206543,277.4284668 C86.0693359,276.269104 85.5007324,274.7237854 85.5007324,272.7924805 C85.5007324,270.7615356 86.1357422,269.1000061 87.4057617,267.8078613 C88.6757813,266.515686 90.3151855,265.8696289 92.3239746,265.8696289 C93.5801544,265.8696289 94.6315918,266.0328674 95.4782715,266.359375 L95.4782715,269.0073242 C94.6094513,268.4981995 93.6244202,268.2436523 92.5231934,268.2436523 C91.2669983,268.2436523 90.2626038,268.6448364 89.5100098,269.4472656 C88.7574005,270.2496643 88.3810883,271.2983398 88.3811035,272.5932617 C88.3810883,273.8549805 88.7380219,274.8704224 89.4519043,275.6396484 C90.1657715,276.408844 91.131424,276.793457 92.348877,276.793457 C93.4943848,276.793457 94.5375061,276.5167542 95.4782715,275.9633789 Z M96.822998,274.7016602 C97.730545,273.2849731 98.4029083,271.7133789 98.8400879,269.9868164 L96.9724121,269.9868164 L96.9724121,267.7788086 L98.8815918,267.7788086 L98.8815918,264.8071289 L101.0563965,264.8071289 L101.0563965,267.7788086 L102.9821777,267.7788086 L102.9821777,269.9868164 L101.0563965,269.9868164 L101.0563965,271.5390625 C101.7591858,271.9430237 102.5228577,272.3995667 103.3474121,272.9086914 L102.2683105,274.784668 L101.0563965,273.9296875 L101.0563965,281.0932617 L98.8815918,281.0932617 L98.8815918,275.2578125 C98.5108185,276.0878906 98.0791779,276.8819885 97.5866699,277.6401367 C97.4095764,276.909668 97.155014,275.9301758 96.822998,274.7016602 Z M111.7312012,274.6020508 C112.2513733,274.8344727 112.7937012,275.050293 113.3581543,275.2495117 C113.2419434,277.5515747 113.1312561,278.9502563 113.026123,279.4455566 C112.9209747,279.9408264 112.7259064,280.2866821 112.440918,280.4831543 C112.1559143,280.6795959 111.769928,280.777832 111.282959,280.777832 L109.9880371,280.777832 C108.9255371,280.777832 108.3942871,280.1137695 108.3942871,278.7856445 L108.3942871,267.8950195 L106.0368652,267.8950195 L106.0368652,272.543457 C106.0368652,274.9838867 105.8404083,276.7519531 105.4475098,277.8476563 C105.0545959,278.9433594 104.3490295,280.0418091 103.3308105,281.1430664 C102.8106232,280.5232544 102.2295685,279.8647461 101.5876465,279.1674805 C102.5007324,278.193512 103.0970001,277.2126465 103.3764648,276.2248535 C103.6559143,275.2370605 103.7956543,273.5395508 103.7956543,271.1323242 L103.7956543,265.5541992 L110.7683105,265.5541992 L110.7683105,278.1049805 C110.7683105,278.4812622 110.8900452,278.6694336 111.1335449,278.6694336 C111.2663574,278.6694336 111.3645782,278.6265259 111.4282227,278.5407715 C111.4918518,278.4549866 111.5527191,278.0911255 111.6108398,277.4492188 C111.6689301,276.8072815 111.7090607,275.8582153 111.7312012,274.6020508 Z M117.0686035,280.1303711 L115.076416,280.1303711 L115.076416,273.6391602 L118.4963379,273.6391602 L118.4963379,272.3608398 L114.4289551,272.3608398 L114.4289551,270.4682617 L118.4963379,270.4682617 L118.4963379,268.9907227 L116.7116699,268.9907227 C116.5733185,269.4776917 116.4266663,269.9314575 116.2717285,270.3520508 C115.7958069,270.1417542 115.2202911,269.914856 114.545166,269.6713867 C114.9989319,268.3432617 115.3752441,266.9155273 115.6740723,265.3881836 L117.4836426,265.753418 L117.201416,267.0981445 L118.4963379,267.0981445 L118.4963379,264.7905273 L120.6877441,264.7905273 L120.6877441,267.0981445 L124.0080566,267.0981445 L124.0080566,268.9907227 L120.6877441,268.9907227 L120.6877441,270.4682617 L124.489502,270.4682617 L124.489502,272.3608398 L120.6877441,272.3608398 L120.6877441,273.6391602 L124.107666,273.6391602 L124.107666,278.1381836 C124.107666,278.7579651 123.9790039,279.2435608 123.7216797,279.5949707 C123.4643555,279.9463501 123.0548401,280.1317444 122.4931641,280.151123 C121.9314728,280.1704712 121.5233459,280.1801758 121.2687988,280.1801758 C121.1581116,279.5825195 121.0031738,278.8907776 120.8039551,278.1049805 C121.0917053,278.1381836 121.3628693,278.1547852 121.6174316,278.1547852 C121.9494629,278.1547852 122.1154785,277.972168 122.1154785,277.6069336 L122.1154785,275.5483398 L120.6877441,275.5483398 L120.6877441,281.2094727 L118.4963379,281.2094727 L118.4963379,275.5483398 L117.0686035,275.5483398 Z M127.9592285,264.8071289 L130.0842285,264.8071289 L130.0842285,278.5200195 C130.0842285,279.3500977 129.8933105,279.9754028 129.5114746,280.3959961 C129.1296387,280.8165588 128.5900879,281.0379028 127.8928223,281.0600586 C127.1955566,281.0821838 126.3931427,281.0932617 125.4855957,281.0932617 C125.397049,280.4402466 125.2531738,279.6599731 125.0539551,278.7524414 C125.928299,278.8077698 126.608963,278.8354492 127.0959473,278.8354492 C127.671463,278.8354492 127.9592133,278.4923401 127.9592285,277.8061523 Z M124.9875488,266.1020508 L127.0129395,266.1020508 L127.0129395,277.2084961 L124.9875488,277.2084961 Z" style="fill:rgb(37,50,73);stroke:none" clip-path="url(#clip22)" />
<clipPath id="clip23"><path d="M23,170 L95,170 L95,220 L23,220 L23,170 Z" /></clipPath>
<path d="M26,217 L91,217 Z" style="fill:none;stroke:rgb(37,50,73);stroke-width:4" clip-path="url(#clip23)" />
<clipPath id="clip24"><path d="M39,181 L79,181 L79,209 L39,209 L39,181 Z" /></clipPath>
<path d="M41.9772949,191.3310547 L42.8405762,191.3310547 C42.5860138,190.9990234 42.1432953,190.4954376 41.5124512,189.8203125 C42.7188263,188.9348907 43.5931702,187.9277344 44.135498,186.7988281 L46.4265137,186.7988281 C46.2494202,187.1972656 46.0612793,187.5791016 45.8620605,187.9443359 L50.1452637,187.9443359 L50.1452637,189.5214844 L46.9577637,189.5214844 C47.2897949,189.8867188 47.6162872,190.2519531 47.9372559,190.6171875 L46.9743652,191.3310547 L48.5847168,191.3310547 C48.4850922,191.0432892 48.3854828,190.75 48.2858887,190.4511719 L50.1618652,190.1357422 C50.2835999,190.5231018 50.4053497,190.9215393 50.5270996,191.3310547 L54.345459,191.3310547 C53.8916779,190.7555237 53.4932404,190.2851563 53.1501465,189.9199219 L53.6647949,189.5214844 L52.9177246,189.5214844 C52.5524902,190.0970001 52.1429749,190.6337891 51.689209,191.1318359 C51.3682404,190.8883362 50.7816467,190.484375 49.9294434,189.9199219 C50.7263184,189.0455627 51.379303,188.0052032 51.8884277,186.7988281 L54.1960449,186.7988281 C54.0632324,187.1972656 53.9138184,187.5791016 53.7478027,187.9443359 L57.5827637,187.9443359 L57.5827637,189.5214844 L55.0925293,189.5214844 C55.3913574,189.8424377 55.6846466,190.1634064 55.9724121,190.484375 L54.8103027,191.3310547 L57.5163574,191.3310547 L57.5163574,193.7216797 L55.2585449,193.7216797 L55.2585449,193.0244141 L44.2351074,193.0244141 L44.2351074,193.7216797 L41.9772949,193.7216797 Z M54.229248,200.2294922 L45.7956543,200.2294922 L45.7956543,201.1923828 L54.229248,201.1923828 Z M53.697998,196.4443359 L53.697998,195.5478516 L45.7956543,195.5478516 L45.7956543,196.4443359 Z M42.8737793,191.3310547 L46.2272949,191.3310547 C45.9284668,190.9547424 45.579834,190.5286407 45.1813965,190.0527344 L45.8620605,189.5214844 L44.7663574,189.5214844 C44.2129669,190.1966095 43.5821075,190.7998047 42.8737793,191.3310547 Z M55.8562012,194.0205078 L55.8562012,197.9716797 L45.7956543,197.9716797 L45.7956543,198.7021484 L56.3874512,198.7021484 L56.3874512,203.234375 L54.229248,203.234375 L54.229248,202.703125 L45.7956543,202.703125 L45.7956543,203.234375 L43.5378418,203.234375 L43.5378418,194.0205078 Z M64.1984863,191.2314453 L67.6184082,191.2314453 L67.8259277,190.3017578 L63.567627,190.3017578 L63.567627,188.5419922 L65.9665527,188.5419922 L65.0285645,187.1806641 L67.170166,186.6826172 L68.1994629,188.5419922 L70.0339355,188.5419922 C70.3714905,187.9055939 70.6675568,187.2913361 70.9221191,186.6992188 L73.2463379,187.1474609 C72.9530334,187.5680389 72.6182404,188.0328674 72.2419434,188.5419922 L74.9562988,188.5419922 L74.9562988,190.3017578 L70.1003418,190.3017578 L69.826416,191.2314453 L74.2922363,191.2314453 L74.2922363,199.8642578 L64.1984863,199.8642578 Z M72.2668457,192.8417969 L66.223877,192.8417969 L66.223877,193.7548828 L72.2668457,193.7548828 Z M66.223877,195.9960938 L72.2668457,195.9960938 L72.2668457,195.0830078 L66.223877,195.0830078 Z M72.2668457,198.2539063 L72.2668457,197.3242188 L66.223877,197.3242188 L66.223877,198.2539063 Z M60.9777832,186.8320313 C61.9960022,188.09375 62.7707367,189.1064453 63.302002,189.8701172 C62.5161896,190.3681641 61.857666,190.7998047 61.326416,191.1650391 C60.5738068,189.9475861 59.8654633,188.8961487 59.201416,188.0107422 Z M75.4875488,200.7275391 L74.6740723,202.9355469 C72.6320801,202.9355469 70.733963,202.924469 68.9797363,202.9023438 L65.3605957,202.8359375 C64.7020569,202.8193359 64.0518341,202.6809845 63.4099121,202.4208984 C62.7679749,202.1607971 62.2118225,201.7678986 61.7414551,201.2421875 L59.9318848,203.3173828 L58.9855957,200.7441406 L60.5627441,199.3911133 L60.5627441,194.8339844 L59.0852051,194.8339844 L59.0852051,192.6425781 L62.6379395,192.6425781 L62.6379395,199.440918 C63.3130646,200.3761292 64.5360413,200.84375 66.3068848,200.84375 C70.0865021,200.84375 73.1467285,200.8050079 75.4875488,200.7275391 Z" style="fill:rgb(37,50,73);stroke:none" clip-path="url(#clip24)" />
<clipPath id="clip25"><path d="M22,92 L95,92 L95,142 L22,142 L22,92 Z" /></clipPath>
<path d="M25,139 L91,139 Z" style="fill:none;stroke:rgb(37,50,73);stroke-width:4" clip-path="url(#clip25)" />
<clipPath id="clip26"><path d="M38,103 L79,103 L79,131 L38,131 L38,103 Z" /></clipPath>
<path d="M57.4729004,112.6503906 L45.8684082,112.6503906 L45.8684082,110.7578125 L50.317627,110.7578125 C50.1184082,110.2763672 49.89151,109.7672501 49.6369629,109.2304688 L52.1105957,108.7822266 C52.3817444,109.2913361 52.6861115,109.9498672 53.0236816,110.7578125 L57.4729004,110.7578125 Z M43.8928223,108.8984375 L46.0842285,109.4794922 C45.6691895,110.8076172 45.2430725,112.0499649 44.8059082,113.206543 L44.8059082,125.2177734 L42.6975098,125.2177734 L42.6975098,117.8881836 C42.3045959,118.6075821 41.9061584,119.2688751 41.5021973,119.8720703 C41.3804474,118.9866486 41.2033539,117.9462891 40.9709473,116.7509766 C41.9891663,114.8473282 42.9631348,112.2298126 43.8928223,108.8984375 Z M56.5100098,115.3398438 L46.5490723,115.3398438 L46.5490723,113.5634766 L56.5100098,113.5634766 Z M56.5100098,117.9628906 L46.5490723,117.9628906 L46.5490723,116.1865234 L56.5100098,116.1865234 Z M46.5158691,125.2177734 L46.5158691,118.8427734 L56.5100098,118.8427734 L56.5100098,125.2177734 L54.2355957,125.2177734 L54.2355957,124.3544922 L48.7902832,124.3544922 L48.7902832,125.2177734 Z M54.2355957,120.8017578 L48.7902832,120.8017578 L48.7902832,122.3955078 L54.2355957,122.3955078 Z M72.9870605,109.4296875 L72.9870605,114.9580078 L60.6520996,114.9580078 L60.6520996,109.4296875 Z M70.5964355,112.9824219 L70.5964355,111.4052734 L63.0427246,111.4052734 L63.0427246,112.9824219 Z M58.5437012,115.9042969 L75.0290527,115.9042969 L75.0290527,117.9296875 L63.598877,117.9296875 L63.4411621,118.9755859 L73.0534668,118.9755859 L72.7214355,122.578125 C72.6384125,123.4248047 72.3271332,124.0459747 71.7875977,124.4416504 C71.2480469,124.8373184 70.5507813,125.0406876 69.6958008,125.0517578 C68.8408203,125.0628204 67.2595215,125.0683594 64.9519043,125.0683594 C64.7969513,124.3378906 64.5921936,123.5520782 64.3376465,122.7109375 C65.947998,122.8382111 67.201416,122.9018555 68.0979004,122.9018555 C68.8117676,122.9018555 69.3153381,122.864502 69.6086426,122.7897949 C69.9019318,122.7150879 70.1066895,122.5850372 70.2229004,122.3996582 C70.3391113,122.2142715 70.424881,121.7369766 70.4802246,120.9677734 L60.7351074,120.9677734 L61.2248535,117.9296875 L58.5437012,117.9296875 Z" style="fill:rgb(37,50,73);stroke:none" clip-path="url(#clip26)" />
<clipPath id="clip27"><path d="M78,14 L150,14 L150,64 L78,64 L78,14 Z" /></clipPath>
<path d="M81,61 L146,61 Z" style="fill:none;stroke:rgb(37,50,73);stroke-width:4" clip-path="url(#clip27)" />
<clipPath id="clip28"><path d="M94,25 L134,25 L134,53 L94,53 L94,25 Z" /></clipPath>
<path d="M101.0529785,38.1948242 L103.427002,38.1948242 C103.4601898,37.8185196 103.4767914,36.8666992 103.4768066,35.3393555 L101.6838379,35.3393555 L101.6838379,33.347168 L103.4768066,33.347168 L103.4768066,30.8237305 L105.701416,30.8237305 L105.701416,33.347168 L108.1916504,33.347168 L108.1916504,30.8237305 L110.4162598,30.8237305 L110.4162598,33.347168 L112.192627,33.347168 L112.192627,35.3393555 L110.4162598,35.3393555 L110.4162598,38.1948242 L112.8400879,38.1948242 L112.8400879,40.1870117 L110.4162598,40.1870117 L110.4162598,44.1049805 L108.1916504,44.1049805 L108.1916504,40.1870117 L105.4523926,40.1870117 C105.1812286,41.8194962 104.6831818,43.2250977 103.958252,44.4038086 C103.2831116,43.817215 102.5637207,43.2638321 101.8000488,42.7436523 C102.3755646,42.0408478 102.8044434,41.1886368 103.0866699,40.1870117 L101.0529785,40.1870117 Z M105.6682129,38.1948242 L108.1916504,38.1948242 L108.1916504,35.3393555 L105.701416,35.3393555 C105.701416,36.4571915 105.6903381,37.4090118 105.6682129,38.1948242 Z M98.8781738,30.9233398 C99.708252,32.0079727 100.4553223,33.0261993 101.1193848,33.9780273 L99.177002,35.2895508 C98.5018616,34.138504 97.8101349,33.0483398 97.1018066,32.019043 Z M113.0393066,44.503418 C112.7294006,45.3002853 112.4914551,46.036293 112.3254395,46.7114258 C111.5894318,46.7335587 109.9347992,46.7446213 107.3615723,46.7446289 L104.4230957,46.7446289 C103.2886505,46.7446213 102.2980957,46.6118088 101.451416,46.3461914 C100.6047363,46.0805664 99.9129944,45.6821213 99.3762207,45.1508789 L97.4504395,47.1264648 L96.5041504,44.5864258 C97.0907288,44.0219727 97.6607208,43.5045547 98.2141113,43.0341797 L98.2141113,38.7426758 L96.6203613,38.7426758 L96.6203613,36.6342773 L100.388916,36.6342773 L100.388916,43.25 C101.2577209,44.1630859 102.5526428,44.6196289 104.2736816,44.6196289 C109.0604553,44.6196289 111.9823303,44.5808868 113.0393066,44.503418 Z M114.0935059,35.621582 L116.3015137,35.621582 L116.3015137,33.7954102 C115.6429749,33.8618164 114.9844513,33.9171524 114.3259277,33.9614258 C114.2484436,33.1202774 114.1488342,32.4119415 114.0270996,31.8364258 C115.7757874,31.747879 117.7458496,31.5154572 119.9372559,31.1391602 L120.4519043,33.2143555 C119.7767639,33.3360977 119.1016388,33.4440079 118.4265137,33.5380859 L118.4265137,35.621582 L120.3190918,35.621582 L120.3190918,37.597168 L118.4265137,37.597168 L118.4265137,39.4233398 L118.8913574,38.9584961 C119.4447327,39.4233398 120.1641388,40.0763321 121.0495605,40.9174805 L119.5720215,42.3452148 C119.1791077,41.8582306 118.7972717,41.4044571 118.4265137,40.9838867 L118.4265137,47.1762695 L116.3015137,47.1762695 L116.3015137,40.7763672 C115.8919983,42.0214844 115.3884277,43.2084961 114.7907715,44.3374023 C114.5804749,43.3855743 114.3148499,42.4558868 113.9938965,41.5483398 C114.72435,40.5356445 115.3884277,39.2185822 115.986084,37.597168 L114.0935059,37.597168 Z M120.9001465,31.4213867 L129.5495605,31.4213867 L129.5495605,36.9995117 L120.9001465,36.9995117 Z M127.3415527,33.347168 L123.1081543,33.347168 L123.1081543,35.0737305 L127.3415527,35.0737305 Z M119.704834,44.7358398 L124.0876465,44.7358398 L124.0876465,43.3081055 L120.8337402,43.3081055 L120.8337402,41.4487305 L124.0876465,41.4487305 L124.0876465,40.0708008 L120.5349121,40.0708008 L120.5349121,38.1450195 L130.0974121,38.1450195 L130.0974121,40.0708008 L126.3620605,40.0708008 L126.3620605,41.4487305 L129.6491699,41.4487305 L129.6491699,43.3081055 L126.3620605,43.3081055 L126.3620605,44.7358398 L130.4958496,44.7358398 L130.4958496,46.6616211 L119.704834,46.6616211 Z" style="fill:rgb(37,50,73);stroke:none" clip-path="url(#clip28)" />
</svg>
